<?xml version="1.0" standalone="no"?><!DOCTYPE svg PUBLIC "-//W3C//DTD SVG 1.1//EN" "http://www.w3.org/Graphics/SVG/1.1/DTD/svg11.dtd"><svg t="1727856018116" class="icon" viewBox="0 0 1024 1024" version="1.1" xmlns="http://www.w3.org/2000/svg" p-id="8290" xmlns:xlink="http://www.w3.org/1999/xlink" width="200" height="200"><path d="M808.96 600.177778l-52.337778-34.133334V467.057778c0-1.706667 0-3.413333-0.568889-5.12-5.12-22.755556-21.048889-92.16-73.386666-92.16-6.826667 0-20.48 0-35.271111 13.084444C610.986667 261.688889 567.751111 204.8 512 204.8S413.013333 261.688889 376.604444 382.862222C366.933333 374.897778 355.555556 369.777778 341.333333 369.777778c-13.084444 0-52.337778 0-73.386666 92.16-0.568889 1.706667-0.568889 3.413333-0.568889 5.12v98.986666l-52.337778 34.133334c-6.257778 3.982222-10.24 11.377778-10.24 19.342222V756.622222c0 12.515556 10.24 22.755556 22.755556 22.755556h157.582222c0.568889 0 1.706667 0.568889 2.275555 0.568889 10.808889 2.275556 18.773333 10.808889 21.617778 21.617777 2.275556 10.24 11.377778 17.635556 22.186667 17.635556h161.564444c10.808889 0 19.911111-7.395556 22.186667-17.635556 2.275556-10.808889 10.808889-18.773333 21.617778-21.617777 0.568889 0 1.706667-0.568889 2.275555-0.568889H796.444444c12.515556 0 22.755556-10.24 22.755556-22.755556v-137.102222c0-7.964444-3.982222-14.791111-10.24-19.342222zM682.666667 415.288889c5.688889 0 18.204444 11.377778 28.444444 54.613333v67.128889l-56.888889-36.977778v-29.582222c10.24-43.804444 22.755556-55.182222 28.444445-55.182222z m-369.777778 54.613333c10.24-42.666667 22.755556-54.613333 28.444444-54.613333s18.204444 11.377778 28.444445 54.613333v29.582222l-56.888889 36.977778V469.902222zM250.311111 631.466667l119.466667-77.937778v179.768889H250.311111V631.466667z m327.111111 142.222222h-130.844444c-6.826667-13.653333-18.204444-24.462222-31.288889-31.288889V413.013333C454.542222 271.36 492.657778 250.311111 512 250.311111c19.342222 0 56.888889 21.048889 96.711111 161.564445v329.955555c-13.653333 7.395556-24.462222 18.204444-31.288889 31.857778z m196.266667-39.822222h-119.466667V554.097778l119.466667 77.937778V733.866667z" p-id="8291"></path><path d="M551.822222 386.844444H477.866667c-12.515556 0-22.755556 10.24-22.755556 22.755556s10.24 22.755556 22.755556 22.755556h73.955555c12.515556 0 22.755556-10.24 22.755556-22.755556s-10.24-22.755556-22.755556-22.755556zM512 568.888889c-12.515556 0-22.755556 10.24-22.755556 22.755555v102.4c0 12.515556 10.24 22.755556 22.755556 22.755556s22.755556-10.24 22.755556-22.755556v-102.4c0-12.515556-10.24-22.755556-22.755556-22.755555z" p-id="8292"></path></svg>